SplineFontDB: 3.0
FontName: Metro
FullName: Metro
FamilyName: Metro
Weight: Regular
Copyright: Created by Khaled Hosny with FontForge 2.0 (http://fontforge.sf.net)
UComments: "2011-7-30: Created." 
Version: 000.100
ItalicAngle: 0
UnderlinePosition: -200
UnderlineWidth: 100
Ascent: 800
Descent: 200
LayerCount: 2
Layer: 0 0 "Back"  1
Layer: 1 0 "Fore"  0
NeedsXUIDChange: 1
XUID: [1021 398 194582295 711436]
FSType: 0
OS2Version: 0
OS2_WeightWidthSlopeOnly: 0
OS2_UseTypoMetrics: 1
CreationTime: 1312056181
ModificationTime: 1312217525
PfmFamily: 17
TTFWeight: 400
TTFWidth: 5
LineGap: 180
VLineGap: 0
OS2TypoAscent: 0
OS2TypoAOffset: 1
OS2TypoDescent: 0
OS2TypoDOffset: 1
OS2TypoLinegap: 180
OS2WinAscent: 0
OS2WinAOffset: 1
OS2WinDescent: 0
OS2WinDOffset: 1
HheadAscent: 0
HheadAOffset: 1
HheadDescent: 0
HheadDOffset: 1
OS2Vendor: 'PfEd'
Lookup: 1 8 0 "'init' Initial Forms in Arabic lookup 0"  {"'init' Initial Forms in Arabic lookup 0-1"  } ['init' ('DFLT' <'dflt' > 'arab' <'dflt' > ) ]
Lookup: 1 8 0 "'medi' Medial Forms in Arabic lookup 1"  {"'medi' Medial Forms in Arabic lookup 1-1"  } ['medi' ('DFLT' <'dflt' > 'arab' <'dflt' > ) ]
Lookup: 1 8 0 "'fina' Terminal Forms in Arabic lookup 2"  {"'fina' Terminal Forms in Arabic lookup 2-1"  } ['fina' ('DFLT' <'dflt' > 'arab' <'dflt' > ) ]
Lookup: 4 8 1 "'rlig' Required Ligatures in Arabic lookup 3"  {"'rlig' Required Ligatures in Arabic lookup 3-1"  } ['rlig' ('DFLT' <'dflt' > 'arab' <'dflt' > ) ]
MarkAttachClasses: 1
DEI: 91125
LangName: 1033 
Encoding: UnicodeBmp
Compacted: 1
UnicodeInterp: none
NameList: AGL without afii
DisplaySize: -96
AntiAlias: 1
FitToEm: 1
WinInfo: 84 12 6
BeginPrivate: 0
EndPrivate
BeginChars: 65538 149

StartChar: uni0661
Encoding: 1633 1633 0
Width: 520
VWidth: 0
Flags: W
VStem: 215 90<-82 478>
LayerCount: 2
Fore
SplineSet
215 478 m 1
 305 478 l 1
 305 -82 l 1
 215 -82 l 1
 215 478 l 1
EndSplineSet
EndChar

StartChar: uni0662
Encoding: 1634 1634 1
Width: 520
VWidth: 0
Flags: W
HStem: 387 89<232 378>
VStem: 142 90<-82 387>
LayerCount: 2
Fore
SplineSet
378 476 m 1
 378 387 l 1
 232 387 l 25
 232 -82 l 1
 142 -82 l 1
 142 386 l 2
 142 434 185 476 232 476 c 2
 378 476 l 1
EndSplineSet
EndChar

StartChar: uni0663
Encoding: 1635 1635 2
Width: 520
VWidth: 0
Flags: W
HStem: 233 90<146 216 306 371>
VStem: 59 90<-83 233 323 477> 146 3<233 323> 301 5<274 323> 371 90<323 477>
LayerCount: 2
Fore
SplineSet
371 477 m 1x98
 461 477 l 1
 461 322 l 2
 461 274 419 233 371 233 c 2
 301 233 l 1
 301 323 l 1
 371 323 l 2
 371 477 l 1x98
216 477 m 1
 306 477 l 1
 306 322 l 2
 306 274 263 233 215 233 c 2
 146 233 l 1
 146 323 l 1xb8
 215 323 l 2
 216 323 l 2
 216 477 l 1
59 477 m 1xd8
 149 477 l 1
 149 -83 l 1
 59 -83 l 1
 59 477 l 1xd8
EndSplineSet
EndChar

StartChar: uni0664
Encoding: 1636 1636 3
Width: 520
VWidth: -2256
Flags: W
HStem: -84 90<210 422>
VStem: 99 323
LayerCount: 2
Back
SplineSet
281.166 469.25 m 1
 334.666 396.876 l 1
 208.542 303.624 l 1
 302.478 239 l 2
 313.232 231.596 321.962 214.988 321.962 201.932 c 0
 321.962 194.146 318.358 182.643 313.916 176.25 c 2
 199.979 12.3125 l 2
 199.877 12.1562 199.709 11.9043 199.604 11.75 c 0
 198.564 10.3047 197.764 8.51758 196.791 6.875 c 2
 401.792 6.375 l 1
 401.604 -83.625 l 1
 155.666 -83.0625 l 2
 148.416 -83.0449 137.58 -79.8516 131.479 -75.9375 c 0
 116.904 -66.5898 105.9 -51.0156 101.479 -36.0625 c 0
 97.0527 -21.1094 97.7324 -7.42188 99.916 4.5625 c 0
 104.232 28.2891 114.451 47.3398 126.104 63.6875 c 2
 126.479 64.1875 l 1
 214.228 190.5 l 1
 142.791 239.688 l 2
 140.525 241.236 137.162 244.12 135.291 246.124 c 0
 128.623 253.308 122.51 259.92 116.541 269.188 c 0
 110.568 278.456 103.971 292.754 105.166 309.876 c 0
 106.357 326.996 115.193 340.832 123.166 349.624 c 0
 130.986 358.254 138.986 364.336 148.166 370.938 c 2
 148.354 371.062 l 2
 148.467 371.142 148.553 371.232 148.666 371.312 c 2
 281.166 469.25 l 1
EndSplineSet
Fore
SplineSet
293 475 m 1
 346 403 l 1
 201 296 l 17
 316 191 l 2
 333 176 334 145 319 127 c 2
 210 6 l 1
 422 6 l 1
 422 -84 l 1
 156 -84 l 2
 149 -84 138 -81 132 -77 c 0
 109 -62 94 -27 99 -2 c 0
 104 23 117 37 130 51 c 2
 222 154 l 1
 142 227 l 2
 127 242 110 260 106 290 c 0
 101 325 125 352 145 367 c 2
 293 475 l 1
EndSplineSet
EndChar

StartChar: uni0665
Encoding: 1637 1637 4
Width: 520
VWidth: 0
Flags: W
HStem: -94 84<186.421 332.615>
LayerCount: 2
Fore
SplineSet
184 429 m 0
 227 458 285 460 330 432 c 0
 370 407 396 366 418 316 c 0
 460 220 483 81 422 -14 c 0
 391 -62 333 -94 261 -94 c 0
 189 -94 131 -63 99 -16 c 0
 36 77 58 214 99 311 c 0
 120 361 146 404 184 429 c 0
259 369 m 0
 250 369 241 365 231 358 c 0
 218 349 193 318 176 278 c 0
 147 210 127 93 169 31 c 0
 186 6 209 -10 260 -10 c 0
 311 -10 334 7 351 33 c 0
 393 98 371 215 341 282 c 0
 323 322 299 352 286 360 c 0
 276 366 268 369 259 369 c 0
EndSplineSet
EndChar

StartChar: uni0666
Encoding: 1638 1638 5
Width: 520
VWidth: 0
Flags: W
HStem: 387 90<102 329>
VStem: 329 90<-82 386>
LayerCount: 2
Fore
SplineSet
102 477 m 1
 330 476 l 2
 378 476 419 434 419 386 c 2
 419 -82 l 1
 329 -82 l 1
 329 386 l 1
 102 387 l 1
 102 477 l 1
EndSplineSet
EndChar

StartChar: uni0667
Encoding: 1639 1639 6
Width: 520
VWidth: 0
Flags: W
LayerCount: 2
Fore
SplineSet
260 63 m 1
 126 482 l 1
 40 454 l 1
 198 -39 l 2
 208 -70 231 -82 260 -82 c 0
 288 -82 312 -70 322 -39 c 2
 480 454 l 1
 394 482 l 1
 260 63 l 1
EndSplineSet
EndChar

StartChar: uni0668
Encoding: 1640 1640 7
Width: 520
VWidth: 0
Flags: W
LayerCount: 2
Fore
SplineSet
260 337 m 1
 126 -82 l 1
 40 -54 l 1
 198 439 l 2
 208 470 231 482 260 482 c 0
 288 482 312 470 322 439 c 2
 480 -54 l 1
 394 -82 l 1
 260 337 l 1
EndSplineSet
EndChar

StartChar: uni0669
Encoding: 1641 1641 8
Width: 520
VWidth: 0
Flags: W
HStem: 158 90<200.006 334>
VStem: 334 90<-82 157 248 371.957>
LayerCount: 2
Fore
SplineSet
316 470 m 0
 367 454 424 396 424 324 c 2
 424 324 424 57 424 -82 c 1
 334 -82 l 1
 334 157 l 1
 233 158 l 2
 214 159 147 184 121 228 c 0
 71 311 96 403 171 450 c 0
 212 475 257 488 316 470 c 0
218 374 m 0
 169 347 175 248 243 248 c 2
 334 248 l 1
 334 324 l 18
 334 391 262 398 218 374 c 0
EndSplineSet
EndChar

StartChar: uni0627
Encoding: 1575 1575 9
Width: 191
VWidth: 0
Flags: W
HStem: 0 21G<50 74> 89 1<50 140>
VStem: 50 90<59.7382 560>
LayerCount: 2
Fore
SplineSet
51 560 m 1
 141 560 l 1
 140 89 l 1
 50 89 l 1
 51 560 l 1
50 0 m 1
 50 90 l 1
 140 90 l 1
 140 42 98 0 50 0 c 1
EndSplineSet
Substitution2: "'fina' Terminal Forms in Arabic lookup 2-1" uniFE8E
EndChar

StartChar: uni0633
Encoding: 1587 1587 10
Width: 817
VWidth: 0
Flags: W
HStem: -169 90<142 365> 0 90<451 521 611 677>
VStem: 52 90<-79 160> 451 4<0 90> 607 4<41 90> 677 90<90 320>
LayerCount: 2
Fore
SplineSet
677 320 m 1
 767 320 l 1
 767 89 l 2
 767 41 725 0 677 0 c 2
 607 0 l 1
 607 90 l 1
 677 90 l 29
 677 320 l 1
521 320 m 1
 611 320 l 1
 611 89 l 2
 611 41 569 0 521 0 c 2
 451 0 l 1
 451 90 l 1
 521 90 l 29
 521 320 l 1
365 322 m 1
 455 322 l 1
 455 -82 l 2
 455 -130 413 -170 365 -170 c 2
 138 -169 l 2
 87.8314229738 -169 52 -129 52 -77 c 2
 52 160 l 1
 142 160 l 1
 142 -79 l 17
 365 -79 l 1
 365 322 l 1
EndSplineSet
Substitution2: "'fina' Terminal Forms in Arabic lookup 2-1" uniFEB2
Substitution2: "'medi' Medial Forms in Arabic lookup 1-1" uniFEB4
Substitution2: "'init' Initial Forms in Arabic lookup 0-1" uniFEB3
EndChar

StartChar: uni0634
Encoding: 1588 1588 11
Width: 817
VWidth: 0
Flags: W
HStem: -169 90<142 365> 0 90<451 521 611 677> 390 90<448.481 527.519 612.481 690.519> 470 90<529.481 607.519>
VStem: 52 90<-79 160> 442 92<396.481 473.519> 451 4<0 90> 523 91<476.481 553.519> 606 91<396.481 473.519> 607 4<41 90> 677 90<90 320>
LayerCount: 2
Fore
SplineSet
651 480 m 0xe880
 652 480 l 0
 677 480 697 460 697 435 c 0
 697 410 677 390 652 390 c 0
 651 390 l 0
 626 390 606 410 606 435 c 0
 606 460 626 480 651 480 c 0xe880
488 480 m 0
 489 480 l 0
 514 480 534 460 534 435 c 0
 534 410 514 390 489 390 c 0
 488 390 l 0
 487 390 l 0
 462 390 442 410 442 435 c 0xec
 442 460 462 480 487 480 c 0
 488 480 l 0
569 560 m 0xd9
 594 560 614 540 614 515 c 0
 614 490 594 470 569 470 c 0
 568 470 l 0
 543 470 523 490 523 515 c 0
 523 540 543 560 568 560 c 0
 569 560 l 0xd9
EndSplineSet
Refer: 10 1587 N 1 0 0 1 0 0 2
Substitution2: "'fina' Terminal Forms in Arabic lookup 2-1" uniFEB6
Substitution2: "'medi' Medial Forms in Arabic lookup 1-1" uniFEB8
Substitution2: "'init' Initial Forms in Arabic lookup 0-1" uniFEB7
EndChar

StartChar: uni0635
Encoding: 1589 1589 12
Width: 893
VWidth: 0
Flags: W
HStem: -169 90<142 365> 0 90<411 425 537 750> 233 90<644.483 736.29>
VStem: 52 90<-79 160> 411 44<0 90> 750 90<90 220.649>
LayerCount: 2
Fore
SplineSet
365 236 m 1
 455 236 l 1
 455 -82 l 2
 455 -130 413 -170 365 -170 c 2
 138 -169 l 2
 88 -169 52 -129 52 -77 c 2
 52 160 l 1
 142 160 l 1
 142 -79 l 17
 365 -79 l 1
 365 236 l 1
693 323 m 0
 710 323 733 321 748 313 c 0
 808 288 838 230 840 148 c 1
 840 91 l 2
 840 41 797 0 749 0 c 2
 411 0 l 1
 411 90 l 1
 425 90 l 1
 468 149 511 212 560 258 c 0
 585 282 612 301 643 313 c 0
 659 319 676 323 693 323 c 0
750 145 m 0
 748 196 740 233 695 233 c 0
 689 233 682 232 675 229 c 0
 660 223 642 211 622 192 c 0
 595 167 567 130 537 90 c 1
 750 90 l 1
 750 108 750 127 750 145 c 0
EndSplineSet
Substitution2: "'fina' Terminal Forms in Arabic lookup 2-1" uniFEBA
Substitution2: "'medi' Medial Forms in Arabic lookup 1-1" uniFEBC
Substitution2: "'init' Initial Forms in Arabic lookup 0-1" uniFEBB
EndChar

StartChar: uni0636
Encoding: 1590 1590 13
Width: 893
VWidth: 0
Flags: W
HStem: -169 90<142 365> 0 90<411 425 537 750> 233 90<644.483 736.29> 309 90<449.481 527.519>
VStem: 52 90<-79 160> 411 44<0 90> 443 91<315.481 392.519> 750 90<90 220.649>
LayerCount: 2
Fore
SplineSet
489 399 m 0xdb
 514 399 534 379 534 354 c 0
 534 329 514 309 489 309 c 0
 488 309 l 0
 463 309 443 329 443 354 c 0
 443 379 463 399 488 399 c 0
 489 399 l 0xdb
EndSplineSet
Refer: 12 1589 N 1 0 0 1 0 0 2
Substitution2: "'fina' Terminal Forms in Arabic lookup 2-1" uniFEBE
Substitution2: "'medi' Medial Forms in Arabic lookup 1-1" uniFEC0
Substitution2: "'init' Initial Forms in Arabic lookup 0-1" uniFEBF
EndChar

StartChar: uni062C
Encoding: 1580 1580 14
Width: 499
VWidth: 0
Flags: W
HStem: -247 90<140.135 371> -125 90<213.481 292.519> 0 90<140.057 286>
VStem: 50 90<-156.697 -2.32254> 207 92<-118.519 -41.4806>
LayerCount: 2
Fore
SplineSet
253 -35 m 2
 254 -35 l 0
 279 -35 299 -55 299 -80 c 0
 299 -105 279 -125 254 -125 c 0
 253 -125 l 2
 252 -125 l 0
 227 -125 207 -105 207 -80 c 0
 207 -55 227 -35 252 -35 c 0
 253 -35 l 2
EndSplineSet
Refer: 15 1581 N 1 0 0 1 0 0 2
Substitution2: "'fina' Terminal Forms in Arabic lookup 2-1" uniFE9E
Substitution2: "'init' Initial Forms in Arabic lookup 0-1" uniFE9F
Substitution2: "'medi' Medial Forms in Arabic lookup 1-1" uniFEA0
EndChar

StartChar: uni062D
Encoding: 1581 1581 15
Width: 499
VWidth: 0
Flags: W
HStem: -247 90<140.135 371> 0 90<140.057 286>
VStem: 50 90<-156.697 -2.32254>
LayerCount: 2
Fore
SplineSet
165 306 m 1
 272 265 320 186 347 157 c 0
 371 131 393 116 405 116 c 2
 447 116 l 1
 447 74 l 2
 449 32 424 0 382 0 c 2
 166 0 l 2
 152 0 140 -11 140 -23 c 2
 140 -134 l 2
 140 -149 146 -157 166 -157 c 2
 166 -157 303 -157 371 -157 c 1
 371 -247 l 1
 166 -247 l 2
 103 -248 50 -196 50 -134 c 2
 50 -23 l 2
 50 42 93 90 166 90 c 2
 286 90 l 1
 284 92 282 94 280 96 c 0
 241 139 214 190 133 221 c 1
 165 306 l 1
EndSplineSet
Substitution2: "'fina' Terminal Forms in Arabic lookup 2-1" uniFEA2
Substitution2: "'init' Initial Forms in Arabic lookup 0-1" uniFEA3
Substitution2: "'medi' Medial Forms in Arabic lookup 1-1" uniFEA4
EndChar

StartChar: uni062E
Encoding: 1582 1582 16
Width: 499
VWidth: 0
Flags: W
HStem: -247 90<140.135 371> 0 90<140.057 286> 237 90<282.481 360.519>
VStem: 50 90<-156.697 -2.32254> 276 91<243.481 320.519>
LayerCount: 2
Fore
SplineSet
321 327 m 0
 322 327 l 0
 347 327 367 307 367 282 c 0
 367 257 347 237 322 237 c 0
 321 237 l 0
 296 237 276 257 276 282 c 0
 276 307 296 327 321 327 c 0
EndSplineSet
Refer: 15 1581 N 1 0 0 1 0 0 2
Substitution2: "'fina' Terminal Forms in Arabic lookup 2-1" uniFEA6
Substitution2: "'init' Initial Forms in Arabic lookup 0-1" uniFEA7
Substitution2: "'medi' Medial Forms in Arabic lookup 1-1" uniFEA8
EndChar

StartChar: uni0639
Encoding: 1593 1593 17
Width: 421
VWidth: 0
Flags: W
HStem: -247 90<140.135 371> 0 90<140.057 166 267 371> 258 90<190.781 368.615>
VStem: 50 90<-156.697 -2.32254>
LayerCount: 2
Fore
SplineSet
190 31 m 1
 157 68 128 108 110 154 c 0
 94 198 97 266 125 299 c 0
 153 332 194 346 240 348 c 0
 279 350 323 345 371 332 c 1
 371 238 l 1
 320 254 276 260 245 258 c 0
 192 255 174 241 194 184 c 0
 202 162 234 114 267 82 c 1
 190 31 l 1
371 0 m 1
 166 0 l 2
 152 0 140 -11 140 -23 c 2
 140 -134 l 2
 140 -149 146 -157 166 -157 c 2
 371 -157 l 1
 371 -247 l 1
 166 -247 l 1
 103 -248 50 -196 50 -134 c 2
 50 -23 l 2
 50 42 93 90 166 90 c 2
 371 90 l 1
 371 0 l 1
EndSplineSet
Substitution2: "'medi' Medial Forms in Arabic lookup 1-1" uniFECC
Substitution2: "'init' Initial Forms in Arabic lookup 0-1" uniFECB
Substitution2: "'fina' Terminal Forms in Arabic lookup 2-1" uniFECA
EndChar

StartChar: uni063A
Encoding: 1594 1594 18
Width: 421
VWidth: 0
Flags: W
HStem: -247 90<140.135 371> 0 90<140.057 166 267 371> 258 90<190.781 368.615> 405 90<137.481 215.519>
VStem: 50 90<-156.697 -2.32254> 131 91<411.481 488.519>
LayerCount: 2
Fore
SplineSet
177 495 m 0xf4
 202 495 222 475 222 450 c 0
 222 425 202 405 177 405 c 0
 176 405 l 0
 151 405 131 425 131 450 c 0
 131 475 151 495 176 495 c 0
 177 495 l 0xf4
EndSplineSet
Refer: 17 1593 N 1 0 0 1 0 0 2
Substitution2: "'medi' Medial Forms in Arabic lookup 1-1" uniFED0
Substitution2: "'init' Initial Forms in Arabic lookup 0-1" uniFECF
Substitution2: "'fina' Terminal Forms in Arabic lookup 2-1" uniFECE
EndChar

StartChar: uniFEBB
Encoding: 65211 65211 19
Width: 601
VWidth: 0
Flags: W
HStem: 0 90<0 73 136 150.117 248 461> 84 6<73 136> 233 90<355.483 447.29>
VStem: 73 90<84 236> 461 90<90 220.649>
LayerCount: 2
Fore
SplineSet
404 323 m 0xb8
 421 323 444 321 459 313 c 0
 519 288 549 230 551 148 c 1
 551 91 l 2
 551 41 508 0 460 0 c 2
 0 0 l 1
 0 90 l 1
 136 90 l 1
 179 149 222 212 271 258 c 0
 296 282 323 301 354 313 c 0
 370 319 387 323 404 323 c 0xb8
461 145 m 0
 459 196 451 233 406 233 c 0
 400 233 393 232 386 229 c 0
 371 223 353 211 333 192 c 0
 306 167 278 130 248 90 c 1
 461 90 l 1
 461 108 461 127 461 145 c 0
73 236 m 1
 163 236 l 1
 163 84 l 1
 73 84 l 1x78
 73 236 l 1
EndSplineSet
EndChar

StartChar: uniFEBF
Encoding: 65215 65215 20
Width: 601
VWidth: 0
Flags: W
HStem: 0 90<0 73 136 150.117 248 461> 84 6<73 136> 233 90<355.483 447.29> 310 92<157.347 234.653>
VStem: 73 90<84 236> 150 92<317.347 394.653> 461 90<90 220.649>
LayerCount: 2
Fore
SplineSet
196 402 m 0x16
 221 402 242 381 242 356 c 0
 242 331 221 310 196 310 c 0
 171 310 150 331 150 356 c 0
 150 381 171 402 196 402 c 0x16
EndSplineSet
Refer: 19 65211 N 1 0 0 1 0 0 2
EndChar

StartChar: uniFEDB
Encoding: 65243 65243 21
Width: 528
VWidth: 84
Flags: W
HStem: 0 90<0 384> 482 90<367.117 471>
LayerCount: 2
Fore
SplineSet
463 572 m 0
 468 572 473 572 478 572 c 1
 471 482 l 1
 473 482 455 480 434 476 c 0
 413 472 387 466 359 458 c 0
 305 442 245 420 210 399 c 1
 211 396 213 393 215 391 c 2
 216 390 l 1
 217 389 l 1
 454 147 l 1
 466 135 472 123 475 111 c 0
 479 98 480 83 477 67 c 0
 474 51 466 33 451 20 c 0
 436 7 414 0 393 0 c 2
 0 0 l 1
 0 90 l 1
 384 90 l 1
 153 326 l 1
 129 349 118 377 118 405 c 0
 118 419 121 434 130 449 c 0
 137 460 150 472 165 477 c 1
 213 505 276 527 334 544 c 0
 364 553 393 560 417 565 c 0
 435 569 449 571 463 572 c 0
EndSplineSet
EndChar

StartChar: uniFED6
Encoding: 65238 65238 22
Width: 622
VWidth: 0
Flags: W
HStem: -170 90<144.974 532> 0 90<399.842 532> 389 90<295.481 373.519 456.053 532.947>
VStem: 50 90<-75.0262 156> 289 91<395.481 472.519> 449 91<394.481 471.519> 532 90<-80 0 90 208.965>
LayerCount: 2
Fore
SplineSet
335 479 m 0xf8
 360 479 380 459 380 434 c 0
 380 409 360 389 335 389 c 0
 334 389 l 0
 309 389 289 409 289 434 c 0
 289 459 309 479 334 479 c 0
 335 479 l 0xf8
494 478 m 0
 495 478 l 0
 520 478 540 458 540 433 c 0
 540 408 520 388 495 388 c 0
 494 388 l 0
 469 388 449 408 449 433 c 0xfc
 449 458 469 478 494 478 c 0
EndSplineSet
Refer: 136 1647 N 1 0 0 1 0 0 2
EndChar

StartChar: uniFE9F
Encoding: 65183 65183 23
Width: 527
VWidth: 0
Flags: W
HStem: -163 90<239.481 317.519> 0 90<0 312> 245 87<99.2299 148.6>
VStem: 233 91<-156.519 -79.4806>
LayerCount: 2
Fore
SplineSet
279 -73 m 0
 304 -73 324 -93 324 -118 c 0
 324 -143 304 -163 279 -163 c 0
 278 -163 l 0
 253 -163 233 -143 233 -118 c 0
 233 -93 253 -73 278 -73 c 0
 279 -73 l 0
EndSplineSet
Refer: 24 65187 N 1 0 0 1 0 0 2
EndChar

StartChar: uniFEA3
Encoding: 65187 65187 24
Width: 527
VWidth: 0
Flags: W
HStem: 0 90<0 312> 245 87<99.2299 148.6>
LayerCount: 2
Fore
SplineSet
101 332 m 1
 136 323 190 310 244 272 c 0
 295 236 335 189 368 160 c 0
 394 137 417 123 432 123 c 2
 477 123 l 1
 477 80 l 2
 477 33 454 0 409 0 c 2
 409 0 136 0 0 0 c 1
 0 90 l 1
 312 90 l 1
 311 91 309 92 308 93 c 0
 269 128 230 172 192 199 c 0
 153 227 115 236 79 245 c 1
 101 332 l 1
EndSplineSet
EndChar

StartChar: uniFEA7
Encoding: 65191 65191 25
Width: 527
VWidth: 0
Flags: W
HStem: 0 90<0 312> 245 87<99.2299 148.6> 310 90<321.481 400.519>
VStem: 315 92<316.481 393.519>
LayerCount: 2
Fore
SplineSet
361 400 m 0xb0
 362 400 l 0
 387 400 407 380 407 355 c 0
 407 330 387 310 362 310 c 0
 361 310 l 0
 360 310 l 0
 335 310 315 330 315 355 c 0
 315 380 335 400 360 400 c 0
 361 400 l 0xb0
EndSplineSet
Refer: 24 65187 N 1 0 0 1 0 0 2
EndChar

StartChar: uni0628
Encoding: 1576 1576 26
Width: 664
VWidth: -468
Flags: W
HStem: -151 90<294.481 372.519> 0 90<147.828 524>
VStem: 50 90<102.977 320> 288 91<-144.519 -67.4806> 524 90<90 320>
LayerCount: 2
Fore
SplineSet
333 -61 m 0
 334 -61 l 0
 359 -61 379 -81 379 -106 c 0
 379 -131 359 -151 334 -151 c 0
 333 -151 l 0
 308 -151 288 -131 288 -106 c 0
 288 -81 308 -61 333 -61 c 0
EndSplineSet
Refer: 30 1646 N 1 0 0 1 0 0 2
Substitution2: "'fina' Terminal Forms in Arabic lookup 2-1" uniFE90
Substitution2: "'init' Initial Forms in Arabic lookup 0-1" uniFE91
Substitution2: "'medi' Medial Forms in Arabic lookup 1-1" uniFE92
EndChar

StartChar: uni062A
Encoding: 1578 1578 27
Width: 664
VWidth: -468
Flags: W
HStem: 0 90<147.828 524> 393 90<216.481 255 256 294.519 370.481 449.519>
VStem: 50 90<102.977 320> 364 92<399.481 476.519> 524 90<90 320>
LayerCount: 2
Fore
SplineSet
410 483 m 0
 411 483 l 0
 436 483 456 463 456 438 c 0
 456 413 436 393 411 393 c 0
 410 393 l 0
 409 393 l 0
 384 393 364 413 364 438 c 0
 364 463 384 483 409 483 c 0
 410 483 l 0
256 482 m 0
 256 483 l 0
 281 483 301 463 301 438 c 0
 301 413 281 392 256 392 c 0
 255 392 l 0
 230 392 210 413 210 438 c 0
 210 463 230 483 255 483 c 0
 256 482 l 0
EndSplineSet
Refer: 30 1646 N 1 0 0 1 0 0 2
Substitution2: "'fina' Terminal Forms in Arabic lookup 2-1" uniFE96
Substitution2: "'init' Initial Forms in Arabic lookup 0-1" uniFE97
Substitution2: "'medi' Medial Forms in Arabic lookup 1-1" uniFE98
EndChar

StartChar: uni062B
Encoding: 1579 1579 28
Width: 664
VWidth: -468
Flags: W
HStem: 0 90<147.828 524> 393 90<216.481 255 256 294.519 370.481 449.519> 473 90<291.481 370.519>
VStem: 50 90<102.977 320> 285 92<479.481 556.519> 364 92<399.481 476.519> 524 90<90 320>
LayerCount: 2
Fore
SplineSet
410 483 m 0xd6
 411 483 l 0
 436 483 456 463 456 438 c 0
 456 413 436 393 411 393 c 0
 410 393 l 0
 409 393 l 0
 384 393 364 413 364 438 c 0
 364 463 384 483 409 483 c 0
 410 483 l 0xd6
256 482 m 0
 256 483 l 0
 281 483 301 463 301 438 c 0
 301 413 281 392 256 392 c 0
 255 392 l 0
 230 392 210 413 210 438 c 0
 210 463 230 483 255 483 c 0
 256 482 l 0
331 563 m 0xba
 332 563 l 0
 357 563 377 543 377 518 c 0
 377 493 357 473 332 473 c 0
 331 473 l 0
 330 473 l 0
 305 473 285 493 285 518 c 0
 285 543 305 563 330 563 c 0
 331 563 l 0xba
EndSplineSet
Refer: 30 1646 N 1 0 0 1 0 0 2
Substitution2: "'fina' Terminal Forms in Arabic lookup 2-1" uniFE9A
Substitution2: "'init' Initial Forms in Arabic lookup 0-1" uniFE9B
Substitution2: "'medi' Medial Forms in Arabic lookup 1-1" uniFE9C
EndChar

StartChar: uni0629
Encoding: 1577 1577 29
Width: 420
VWidth: 654
Flags: W
HStem: 0 90<139.82 280> 388 90<131.481 209.519 286.053 362.947>
VStem: 125 91<394.481 471.519> 279 91<395.481 472.519> 280 90<90 281>
LayerCount: 2
Fore
SplineSet
325 479 m 0xf0
 350 479 370 459 370 434 c 0
 370 409 350 389 325 389 c 0
 324 389 l 0
 299 389 279 409 279 434 c 0
 279 459 299 479 324 479 c 0
 325 479 l 0xf0
170 478 m 0
 171 478 l 0
 196 478 216 458 216 433 c 0
 216 408 196 388 171 388 c 0
 170 388 l 0
 145 388 125 408 125 433 c 0
 125 458 145 478 170 478 c 0
EndSplineSet
Refer: 78 1607 N 1 0 0 1 0 0 2
Substitution2: "'fina' Terminal Forms in Arabic lookup 2-1" uniFE94
EndChar

StartChar: uni066E
Encoding: 1646 1646 30
Width: 664
VWidth: -468
Flags: W
HStem: 0 90<147.828 524>
VStem: 50 90<102.977 320> 524 90<90 320>
LayerCount: 2
Fore
SplineSet
140 320 m 1
 140 137 l 2
 140 100 178 90 197 90 c 2
 524 90 l 1
 524 320 l 1
 614 320 l 1
 614 91 l 2
 614 44 575 1 523 0 c 2
 193 0 l 2
 124 0 50 39 50 137 c 2
 50 320 l 1
 140 320 l 1
EndSplineSet
EndChar

StartChar: uniFEEB
Encoding: 65259 65259 31
Width: 524
VWidth: 0
Flags: W
HStem: 0 21G<0 399> 47 43<67 157 225 315> 236 11<160 200>
VStem: 67 90<47 155.039> 225 90<47 155.016> 383 91<90 176.25>
LayerCount: 2
Fore
SplineSet
157 326 m 1
 200 326 273 328 342 299 c 0
 411 270 474 200 474 88 c 0
 474 65 467 41 450 23 c 0
 433 6 409 0 389 0 c 1
 0 0 l 1
 0 90 l 1
 383 90 l 1
 382 171 353 197 308 216 c 0
 263 235 200 236 157 236 c 1
 157 326 l 1
189 247 m 0
 218 247 248 239 273 219 c 0
 298 199 314 165 315 128 c 2
 315 128 315 74 315 47 c 1
 225 47 l 1
 225 126 l 2
 225 149 211 157 190 157 c 0
 169 157 157 149 157 127 c 2
 157 47 l 1
 67 47 l 1
 67 127 l 2
 67 163 82 197 106 217 c 0
 130 238 160 247 189 247 c 0
EndSplineSet
EndChar

StartChar: uniFEEC
Encoding: 65260 65260 32
Width: 390
VWidth: 0
Flags: W
HStem: -157 90<165.688 231.543> 0 43<75 165 233 323> 47 43<75 165 233 323> 157 90<165.688 231.543>
VStem: 75 90<-65.0393 43 47 155.039> 233 90<-65.0156 43 47 155.016>
LayerCount: 2
Fore
SplineSet
197 -157 m 0
 168 -157 138 -148 114 -127 c 0
 90 -107 75 -73 75 -37 c 2
 75 43 l 1
 165 43 l 1
 165 -37 l 2
 165 -59 177 -67 198 -67 c 0
 219 -67 233 -59 233 -36 c 2
 233 43 l 1
 323 43 l 1
 323 16 323 -38 323 -38 c 2
 322 -75 306 -109 281 -129 c 0
 256 -149 226 -157 197 -157 c 0
197 247 m 0
 226 247 256 239 281 219 c 0
 306 199 322 165 323 128 c 2
 323 128 323 74 323 47 c 1
 233 47 l 1
 233 126 l 2
 233 149 219 157 198 157 c 0
 177 157 165 149 165 127 c 2
 165 47 l 1
 75 47 l 1
 75 127 l 2
 75 163 90 197 114 217 c 0
 138 238 168 247 197 247 c 0
390 90 m 1
 390 0 l 1
 1 0 l 1
 0 90 l 1
 390 90 l 1
EndSplineSet
EndChar

StartChar: uniFED2
Encoding: 65234 65234 33
Width: 691
VWidth: -480
Flags: W
HStem: -170 90<150.623 601.002> -1 91<466.981 601> 226 91<474.744 584.388> 393 90<369.481 447.519>
VStem: 52 90<-73.0656 82> 363 91<399.481 476.519> 601 90<-80 0 90 208.525>
LayerCount: 2
Fore
SplineSet
409 483 m 0
 434 483 454 463 454 438 c 0
 454 413 434 393 409 393 c 0
 408 393 l 0
 383 393 363 413 363 438 c 0
 363 463 383 483 408 483 c 0
 409 483 l 0
EndSplineSet
Refer: 137 1697 N 1 0 0 1 0 0 2
EndChar

StartChar: uniFC37
Encoding: 64567 64567 34
Width: 525
VWidth: -1730
Flags: W
HStem: 0 90<146 368>
VStem: 56 90<90.968 313 415 562>
LayerCount: 2
Fore
SplineSet
414 570 m 1
 444 485 l 1
 371 459 278 418 222 370 c 2
 220 368 l 1
 218 367 l 2
 216 366 l 0
 216 365 218 360 227 354 c 2
 230 352 l 1
 232 350 l 1
 450 136 l 1
 472 116 480 90 473 59 c 0
 469 43 459 27 443 16 c 0
 427 5 408 0 389 0 c 2
 147 0 l 2
 121 0 95 11 78 29 c 0
 61 47 56 70 56 92 c 1
 56 93 l 1
 50 562 l 1
 140 563 l 1
 142 415 l 1
 148 424 155 432 163 438 c 1
 236 501 337 542 414 570 c 1
143 313 m 1
 146 93 l 1
 146 92 l 1
 146 91 146 91 146 90 c 0
 147 90 l 1
 368 90 l 1
 171 284 l 2
 160 292 150 302 143 313 c 1
384 75 m 2
 386 72 l 2
 385 73 384 75 384 75 c 2
EndSplineSet
Ligature2: "'rlig' Required Ligatures in Arabic lookup 3-1" uniFEDB uniFE8E
EndChar

StartChar: uni0643
Encoding: 1603 1603 35
Width: 510
VWidth: 0
Flags: W
HStem: 0 90<98 370> 238 66<134 189> 332 66<248 298>
VStem: 98 10<0 90> 134 139<240.028 303.5> 165 133<333.25 395.972> 370 90<90 560>
LayerCount: 2
Fore
SplineSet
370 560 m 1xf2
 460 560 l 1
 460 89 l 2
 460 41 418 0 370 0 c 2
 98 0 l 1
 98 90 l 1
 370 90 l 2
 370 560 l 1xf2
50 90 m 1
 108 90 l 1
 108 0 l 1
 98 0 l 1
 50 90 l 1
EndSplineSet
Refer: 142 -1 N 1 0 0 1 216 238 2
Substitution2: "'fina' Terminal Forms in Arabic lookup 2-1" uniFEDA
Substitution2: "'init' Initial Forms in Arabic lookup 0-1" uniFEDB
Substitution2: "'medi' Medial Forms in Arabic lookup 1-1" uniFEDC
EndChar

StartChar: uni0644
Encoding: 1604 1604 36
Width: 502
VWidth: 0
Flags: W
HStem: -160 90<140 362>
VStem: 50 90<-70 90> 362 90<-70 557>
LayerCount: 2
Fore
SplineSet
362 557 m 1
 452 557 l 1
 452 -71 l 2
 452 -119 411 -160 363 -160 c 2
 140 -160 l 2
 92 -160 50 -118 50 -70 c 2
 50 90 l 1
 140 90 l 1
 140 -70 l 1
 362 -70 l 25
 362 557 l 1
EndSplineSet
Substitution2: "'fina' Terminal Forms in Arabic lookup 2-1" uniFEDE
Substitution2: "'init' Initial Forms in Arabic lookup 0-1" uniFEDF
Substitution2: "'medi' Medial Forms in Arabic lookup 1-1" uniFEE0
EndChar

StartChar: uni062F
Encoding: 1583 1583 37
Width: 413
VWidth: 0
Flags: W
HStem: 0 90<50 273>
VStem: 273 90<90 155.077>
LayerCount: 2
Fore
SplineSet
179 321 m 1
 260 283 308 237 334 193 c 0
 360 149 363 108 363 88 c 0
 363 63 354 38 335 21 c 0
 316 4 293 0 273 0 c 2
 50 0 l 1
 50 90 l 1
 273 90 l 2
 273 101 272 121 257 147 c 0
 241 173 210 207 141 239 c 1
 179 321 l 1
EndSplineSet
Substitution2: "'fina' Terminal Forms in Arabic lookup 2-1" uniFEAA
EndChar

StartChar: uni0649
Encoding: 1609 1609 38
Width: 552
VWidth: 0
Flags: W
HStem: -160 90<159.201 399.002> 77 91<395.411 502>
VStem: 50 90<-50.4022 162>
LayerCount: 2
Fore
SplineSet
402 168 m 1
 403 168 l 1
 502 167 l 1
 502 77 l 1
 404 78 l 2
 400 78 397 77 394 77 c 1
 404 65 417 49 432 33 c 0
 446 18 460 3 472 -13 c 0
 484 -29 496 -46 499 -73 c 0
 500 -86 497 -103 489 -116 c 0
 481 -129 468 -138 456 -144 c 0
 431 -156 404 -159 367 -160 c 2
 366 -160 l 1
 295 -159 228 -164 169 -150 c 0
 139 -143 110 -130 88 -105 c 0
 66 -80 53 -46 50 -8 c 2
 50 -6 l 1
 50 -5 l 1
 50 162 l 1
 140 162 l 1
 140 -2 l 1
 142 -25 148 -37 155 -44 c 0
 162 -52 171 -58 190 -62 c 0
 227 -71 291 -69 365 -70 c 0
 366 -70 l 0
 381 -70 391 -68 400 -67 c 1
 392 -56 379 -43 366 -29 c 0
 339 -1 308 23 294 68 c 0
 290 79 288 94 292 109 c 0
 296 124 307 138 319 146 c 0
 342 163 367 166 400 168 c 2
 402 168 l 1
EndSplineSet
Substitution2: "'fina' Terminal Forms in Arabic lookup 2-1" uniFEF0
EndChar

StartChar: uniFEF0
Encoding: 65264 65264 39
Width: 502
VWidth: 0
Flags: W
HStem: -160 90<159.201 399.002> 77 91<395.411 502>
VStem: 50 90<-50.4022 162>
LayerCount: 2
Back
SplineSet
140 209 m 1xb8
 140 61 l 2
 140 60 l 0
 140 36 150 21 172 6 c 0
 194 -9 227 -20 259 -20 c 2
 358 -20 l 2
 359 -20 l 2
 359 96 l 1
 449 96 l 1
 449 -21 l 2
 449 -69 406 -110 358 -110 c 2
 259 -110 l 2
 258 -110 l 0
 210 -109 161 -96 121 -69 c 0
 81 -42 50 5 50 61 c 0
 50 209 l 1
 140 209 l 1xb8
320 141 m 1xd8
 535 141 l 1
 535 51 l 1
 320 51 l 1
 320 141 l 1xd8
90 124.75 m 1
 90.75 2.5625 l 2
 91.6992 -21.7461 97.1406 -33.0547 103.625 -40.625 c 0
 110.172 -48.2695 120.547 -54.6035 139.375 -59.4375 c 0
 176.469 -68.9629 240.912 -67.4844 313.876 -68.5625 c 1
 359.864 -65.0312 366.656 -46.4434 367.312 -33.1875 c 0
 367.972 -19.8398 363.066 -3.79297 327.938 0 c 1
 337.562 89.4375 l 1
 410.276 81.5879 460.188 23.0254 457.188 -37.625 c 0
 454.188 -98.2734 398.804 -152.838 319.438 -158.5 c 2
 317.5 -158.625 l 1
 315.5 -158.562 l 2
 244.604 -157.439 177.16 -162.01 117 -146.562 c 0
 86.9199 -138.838 57.2109 -124.756 35.3125 -99.1875 c 0
 13.4141 -73.6191 2.12109 -38.9648 0.75 0.0625 c 2
 0.75 0.6875 l 1
 0.75 1.375 l 1
 0 124.25 l 1
 90 124.75 l 1
324.438 89.75 m 1
 532.438 89.75 l 1
 532.438 -0.25 l 1
 324.438 -0.25 l 1
 324.438 89.75 l 1
EndSplineSet
Fore
SplineSet
402 168 m 1
 403 168 l 1
 502 167 l 1
 502 77 l 1
 404 78 l 2
 400 78 397 77 394 77 c 1
 404 65 417 49 432 33 c 0
 446 18 460 3 472 -13 c 0
 484 -29 496 -46 499 -73 c 0
 500 -86 497 -103 489 -116 c 0
 481 -129 468 -138 456 -144 c 0
 431 -156 404 -159 367 -160 c 2
 366 -160 l 1
 295 -159 228 -164 169 -150 c 0
 139 -143 110 -130 88 -105 c 0
 66 -80 53 -46 50 -8 c 2
 50 -6 l 1
 50 -5 l 1
 50 162 l 1
 140 162 l 1
 140 -2 l 1
 142 -25 148 -37 155 -44 c 0
 162 -52 171 -58 190 -62 c 0
 227 -71 291 -69 365 -70 c 0
 366 -70 l 0
 381 -70 391 -68 400 -67 c 1
 392 -56 379 -43 366 -29 c 0
 339 -1 308 23 294 68 c 0
 290 79 288 94 292 109 c 0
 296 124 307 138 319 146 c 0
 342 163 367 166 400 168 c 2
 402 168 l 1
EndSplineSet
EndChar

StartChar: uniFEE3
Encoding: 65251 65251 40
Width: 447
VWidth: 0
Flags: W
HStem: 0 90<0 83 172 298.071>
VStem: 83 89<90 236.659>
LayerCount: 2
Fore
SplineSet
216 332 m 0
 245 332 275 322 302 305 c 1
 302 306 l 1
 302 305 l 1
 334 284 359 253 377 215 c 0
 395 177 407 131 387 86 c 1
 387 85 l 1
 386 85 l 1
 365 37 319 12 279 5 c 0
 239 -2 200 1 171 0 c 1
 171 66 l 1
 160 29 122 0 82 0 c 2
 0 0 l 1
 0 90 l 1
 28 90 55 90 83 90 c 25
 83 208 l 2
 83 261 122 304 165 322 c 0
 181 329 198 332 216 332 c 0
253 230 m 0
 215 254 173 244 173 199 c 2
 172 90 l 1
 206 91 239 90 262 94 c 0
 288 98 295 103 305 123 c 0
 308 130 308 152 296 176 c 0
 284 200 263 224 253 230 c 0
EndSplineSet
EndChar

StartChar: uniFECB
Encoding: 65227 65227 41
Width: 391
VWidth: 0
Flags: W
HStem: 0 90<0 128.922 217.002 341> 258 90<160.781 338.615>
LayerCount: 2
Back
SplineSet
210 328 m 4
 256 330 310 322 368 304 c 5
 341 218 l 5
 290 234 246 240 215 238 c 4
 184 236 168 227 163 221 c 4
 158 215 155 209 164 184 c 0
 172 162 194 129 230 90 c 1
 396 90 l 1
 396 0 l 1
 0 0 l 1
 0 90 l 1
 113 90 l 1
 98 112 88 133 80 154 c 0
 64 198 67 246 95 279 c 4
 123 312 164 326 210 328 c 4
EndSplineSet
Fore
SplineSet
160 31 m 5
 127 68 98 108 80 154 c 4
 64 198 67 266 95 299 c 4
 123 332 164 346 210 348 c 4
 249 350 293 345 341 332 c 5
 341 238 l 5
 290 254 246 260 215 258 c 4
 162 255 144 241 164 184 c 4
 172 162 204 114 237 82 c 5
 160 31 l 5
341 90 m 1
 341 0 l 1
 247 0 l 2
 236 0 224 3 217 7 c 0
 192 21 167 21 142 7 c 0
 135 3 122 0 110 0 c 2
 0 0 l 1
 0 90 l 1
 341 90 l 1
EndSplineSet
EndChar

StartChar: uniFC8E
Encoding: 64654 64654 42
Width: 700
VWidth: 0
Flags: W
HStem: -140 90<160.2 404.42> 0 90<610 700> 165 90<443.469 508.816> 326 90<370.481 449.519>
VStem: 51 90<-30.4022 183> 364 92<332.481 409.519> 519 91<90 160.756>
LayerCount: 2
Fore
SplineSet
502 255 m 0
 531 254 562 240 581 215 c 0
 602 187 609 149 609 104 c 1
 610 90 l 2
 700 90 l 1
 700 0 l 1
 610 0 l 2
 563 0 521 40 520 87 c 1
 520 88 l 2
 519 101 l 2
 519 102 l 0
 519 103 l 0
 520 138 513 156 509 161 c 0
 505 166 506 166 496 165 c 0
 476 164 429 139 389 104 c 1
 391 101 392 98 395 94 c 0
 409 76 437 49 461 24 c 0
 473 11 484 -1 494 -16 c 0
 504 -31 515 -54 506 -81 c 0
 497 -108 472 -123 450 -130 c 0
 428 -137 402 -139 368 -140 c 0
 367 -140 l 0
 366 -140 l 0
 295 -139 229 -144 170 -130 c 0
 140 -123 111 -110 89 -85 c 0
 67 -60 54 -26 51 12 c 0
 51 13 51 14 51 15 c 2
 50 183 l 1
 140 183 l 1
 141 18 l 2
 143 -6 148 -17 155 -24 c 0
 162 -32 172 -38 191 -42 c 0
 228 -51 292 -49 366 -50 c 0
 382 -50 395 -48 405 -47 c 1
 402 -44 399 -41 396 -38 c 0
 375 -16 347 9 324 39 c 0
 313 54 302 70 298 92 c 0
 294 114 302 144 320 162 c 0
 320 163 l 0
 370 210 426 251 490 255 c 0
 494 255 498 255 502 255 c 0
410 416 m 0
 411 416 l 0
 436 416 456 396 456 371 c 0
 456 346 436 326 411 326 c 0
 410 326 l 0
 409 326 l 0
 384 326 364 346 364 371 c 0
 364 396 384 416 409 416 c 0
 410 416 l 0
EndSplineSet
LCarets2: 1 0 
Ligature2: "'rlig' Required Ligatures in Arabic lookup 3-1" uniFEE8 uniFEF0
EndChar

StartChar: braceright
Encoding: 125 125 43
Width: 341
VWidth: 0
Flags: W
HStem: -251 90<51 108.526> 155 90<234.475 290> 560 90<52 109.62>
VStem: 125 90<-144.573 118 119 146.384 260.425 544.619>
LayerCount: 2
Fore
SplineSet
51 650 m 1
 99 651 143 639 174 608 c 0
 205 577 215 533 215 484 c 2
 215 316 l 1
 215 315 l 2
 215 282 224 269 234 260 c 0
 244 251 262 245 290 245 c 0
 291 155 l 2
 290 155 l 0
 259 155 238 149 228 143 c 0
 218 137 215 136 215 117 c 0
 215 116 l 2
 216 -88 l 1
 216 -137 201 -181 170 -210 c 0
 139 -239 95 -252 50 -251 c 1
 51 -161 l 1
 82 -161 99 -154 109 -145 c 0
 119 -136 126 -120 126 -88 c 2
 125 117 l 1
 125 118 l 1
 126 119 l 1
 127 152 140 184 162 205 c 1
 138 233 125 271 125 315 c 2
 125 484 l 2
 125 521 118 537 110 545 c 0
 102 553 87 560 52 560 c 1
 51 650 l 1
EndSplineSet
EndChar

StartChar: braceleft
Encoding: 123 123 44
Width: 341
VWidth: 0
Flags: W
HStem: -250 90<232.474 290> 155 90<51 106.525> 560 90<231.38 289>
VStem: 125 90<-144.573 146.384 260.426 545.618>
CounterMasks: 1 e0
LayerCount: 2
Fore
SplineSet
290 650 m 0
 289 560 l 1
 254 560 239 554 231 546 c 0
 223 538 215 521 215 484 c 2
 215 316 l 1
 215 315 l 2
 215 271 202 233 178 205 c 1
 200 184 214 152 215 119 c 2
 215 118 l 1
 214 -88 l 2
 214 -120 222 -136 232 -145 c 0
 242 -154 259 -160 290 -160 c 1
 291 -250 l 1
 246 -251 202 -239 171 -210 c 0
 140 -181 124 -137 124 -88 c 2
 125 117 l 2
 125 136 123 137 113 143 c 0
 103 149 81 155 51 155 c 0
 50 155 l 2
 51 245 l 2
 79 245 97 251 107 260 c 0
 117 269 125 283 125 316 c 2
 125 484 l 2
 125 533 136 578 167 609 c 0
 198 640 242 651 290 650 c 0
EndSplineSet
EndChar

StartChar: parenleft
Encoding: 40 40 45
Width: 319
VWidth: 0
Flags: W
LayerCount: 2
Fore
SplineSet
189.25 671 m 1
 266.25 624 l 1
 95.25 346 93.25 70 269.25 -228 c 1
 191.25 -274 l 1
 2.25 46 4.25 369 189.25 671 c 1
EndSplineSet
EndChar

StartChar: parenright
Encoding: 41 41 46
Width: 319
VWidth: 0
Flags: W
LayerCount: 2
Fore
SplineSet
130 671 m 1
 315 369 317 46 128 -274 c 1
 50 -228 l 1
 226 70 224 346 53 624 c 1
 130 671 l 1
EndSplineSet
EndChar

StartChar: bracketleft
Encoding: 91 91 47
Width: 266
VWidth: 0
Flags: W
HStem: -253 90<140 214> 556 90<140 214>
VStem: 50 164<-253 -163 556 646> 50 90<-163 556>
LayerCount: 2
Fore
SplineSet
51 646 m 1xe0
 96 646 l 1
 214 646 l 1
 214 556 l 1xe0
 140 556 l 1
 140 -163 l 1xd0
 172 -163 206 -163 216 -163 c 1
 214 -253 l 1xe0
 211 -253 101 -253 97 -253 c 2
 50 -255 l 1xd0
 50 -208 l 1
 50 601 l 1
 51 646 l 1xe0
EndSplineSet
EndChar

StartChar: bracketright
Encoding: 93 93 48
Width: 266
VWidth: 0
Flags: W
HStem: -249 90<52 126> 559 90<53 126>
VStem: 52 164<-249 -159 559 649> 126 90<-159 558>
LayerCount: 2
Fore
SplineSet
216 650 m 1xd0
 216 604 l 1
 216 -204 l 1
 216 -249 l 1
 171 -249 l 1
 52 -249 l 1
 52 -159 l 1xe0
 126 -159 l 1
 126 558 l 1
 94 558 60 559 50 559 c 1
 53 649 l 1
 56 649 166 649 170 649 c 2
 216 650 l 1xd0
EndSplineSet
EndChar

StartChar: uniFEFB
Encoding: 65275 65275 49
Width: 388
VWidth: 1426
Flags: W
HStem: 0 90<50 130.452 166 247>
VStem: 176 161<176.056 246.94> 248 89<90 175 297 560>
LayerCount: 2
Back
SplineSet
-35.0625 560.062 m 1
 54.9375 560 l 1
 54.5 88.9375 l 2
 54.4629 41.2012 12.4531 0 -35.625 0 c 2
 -271.75 0 l 1
 -271.75 90 l 1
 -35.625 90 l 2
 -35.5566 90 -35.5645 90.002 -35.5 90 c 2
 -35.0625 560.062 l 1
-190 478.562 m 1
 -100 478.438 l 1
 -100.375 45 l 1
 -190.375 45.0625 l 1
 -190 478.562 l 1
335.312 558.624 m 1
 425.312 558.562 l 1
 424.938 87.5 l 2
 424.898 39.7656 382.888 -1.4375 334.812 -1.4375 c 2
 175.875 -1.4375 l 1
 175.875 88.5625 l 1
 334.812 88.5625 l 2
 334.878 88.5625 334.874 88.5645 334.938 88.5625 c 2
 335.312 558.624 l 1
180.438 557.062 m 1
 270.438 557 l 1
 270.062 131.562 l 1
 180.062 131.625 l 1
 180.438 557.062 l 1
EndSplineSet
Fore
SplineSet
248 560 m 1xa0
 338 560 l 1
 337 89 l 2xa0
 337 41 295 0 247 0 c 2
 50 0 l 1
 50 90 l 1
 100 90 l 1
 118 100 134 113 147 128 c 0
 165 150 177 179 176 222 c 2
 176 223 l 1xc0
 76 565 l 1
 162 590 l 1
 248 297 l 1
 248 560 l 1xa0
247 175 m 1
 232 145 206 116 166 90 c 1
 247 90 l 2
 247 175 l 1
EndSplineSet
LCarets2: 1 0 
Ligature2: "'rlig' Required Ligatures in Arabic lookup 3-1" uniFEDF uniFE8E
EndChar

StartChar: uni064D
Encoding: 1613 1613 50
Width: 0
VWidth: 0
Flags: W
VStem: -134 267
LayerCount: 2
Back
SplineSet
165.375 924.312 m 1
 165.5 874.312 l 1
 -164.688 873.25 l 1
 -164.875 923.25 l 1
 165.375 924.312 l 1
165.375 796.312 m 1
 165.5 746.312 l 1
 -164.688 745.25 l 1
 -164.875 795.25 l 1
 165.375 796.312 l 1
EndSplineSet
Fore
SplineSet
98 905 m 1
 133 870 l 1
 -99 635 l 1
 -134 670 l 1
 98 905 l 1
99 1066 m 1
 134 1031 l 1
 -98 796 l 1
 -134 831 l 1
 99 1066 l 1
EndSplineSet
EndChar

StartChar: uni064F
Encoding: 1615 1615 51
Width: 0
VWidth: -698
Flags: W
LayerCount: 2
Back
SplineSet
-2.0625 957.562 m 0
 -2.04102 957.562 -2.02148 957.562 -2 957.562 c 0
 61.7383 960.226 112.881 906.752 113.062 846.688 c 2
 113.062 846.624 l 2
 113.062 786.992 62.1758 739.8 2.3125 739.5 c 2
 2.25 739.5 l 1
 2.1875 739.5 l 2
 -57.3145 739.5 -105.094 785.646 -109.938 843.25 c 0
 -115.059 904.152 -63.6406 954.968 -2.0625 957.562 c 0
0.0625 907.562 m 0
 -35.4785 906.086 -62.6465 877.426 -60.125 847.438 c 0
 -57.3262 814.15 -32.2207 789.56 2.0625 789.5 c 0
 2.10547 789.5 2.14453 789.5 2.1875 789.5 c 0
 36.0918 789.734 63.0254 815.704 63.0625 846.562 c 0
 63.0625 846.582 63.0625 846.606 63.0625 846.624 c 0
 62.9297 877.06 33.3984 908.974 0.0625 907.562 c 0
-4.9375 789.938 m 1
 -4.4375 739.938 l 1
 -272.438 737.312 l 1
 -272.938 787.312 l 1
 -4.9375 789.938 l 1
EndSplineSet
Fore
SplineSet
13.0615 1043 m 0
 42.0615 1044 72.0615 1033 94.0615 1013 c 1
 138.062 972 137.062 903 96.0615 859 c 1
 55.0615 816 -10.9385 812 -55.9385 848 c 0
 -103.938 886 -105.938 958 -65.9385 1005 c 0
 -44.9385 1029 -15.9385 1042 13.0615 1043 c 0
16.0615 992 m 0
 0.0615234 991 -16.9385 985 -27.9385 972 c 1
 -50.9385 945 -48.9385 906 -24.9385 887 c 1
 1.06152 866 37.0615 868 60.0615 893 c 0
 83.0615 918 83.0615 956 60.0615 977 c 0
 49.0615 987 32.0615 993 16.0615 992 c 0
54.0615 888 m 1
 91.0615 855 l 1
 -89.9385 657 l 1
 -126.938 691 l 1
 54.0615 888 l 1
EndSplineSet
EndChar

StartChar: uni0652
Encoding: 1618 1618 52
Width: 0
VWidth: 0
Flags: W
HStem: 733 50<-46.8022 48.0328> 901 50<-47.065 44.206>
VStem: 61.6699 50.0001<797.515 883.668>
LayerCount: 2
Fore
SplineSet
-3.33008 951 m 0
 60.6699 954 111.67 900 111.67 840 c 2
 111.67 780 60.6699 733 0.669922 733 c 2
 -59.3301 733 -106.331 779 -111.331 837 c 0
 -116.331 898 -65.3311 948 -3.33008 951 c 0
-1.33008 901 m 0
 -37.3301 900 -65.3311 871 -62.3311 841 c 0
 -59.3301 808 -33.3301 783 0.669922 783 c 0
 34.6699 783 61.6699 809 61.6699 840 c 0
 61.6699 870 31.6699 902 -1.33008 901 c 0
EndSplineSet
EndChar

StartChar: uni06D2
Encoding: 1746 1746 53
Width: 819
VWidth: 598
Flags: W
HStem: -234 90<160.98 769.619> 108 90<325.746 446.742>
LayerCount: 2
Fore
SplineSet
385.619 198 m 0
 434.619 196 475.619 176 502.619 159 c 1
 454.619 82 l 1
 436.619 93 406.619 107 381.619 108 c 0
 356.619 109 335.619 105 312.619 72 c 0
 309.619 68 306.619 49 288.619 23 c 0
 270.619 -3 236.619 -25 183.619 -39 c 0
 149.619 -48 137.619 -74 140.619 -94 c 0
 143.619 -114 161.619 -141 239.619 -144 c 1
 769.619 -144 l 1
 769.619 -234 l 1
 237.619 -234 l 2
 236.619 -234 l 0
 131.619 -231 62.6191 -175 51.6191 -107 c 0
 40.6191 -39 86.6191 29 160.619 48 c 0
 201.619 59 209.619 68 214.619 75 c 0
 219.619 82 221.619 98 239.619 123 c 0
 278.619 178 336.619 200 385.619 198 c 0
EndSplineSet
Substitution2: "'fina' Terminal Forms in Arabic lookup 2-1" uniFBAF
EndChar

StartChar: uniFBAF
Encoding: 64431 64431 54
Width: 609
VWidth: 598
Flags: W
HStem: -235 90<160.98 609.619> 0 90<511.948 544.619> 108 90<323.583 405.614>
LayerCount: 2
Fore
SplineSet
366.619 198 m 4
 415.619 198 463.619 170 488.619 123 c 4
 497.619 106 504.619 99 511.619 95 c 4
 518.619 91 526.619 89 544.619 90 c 5
 550.619 0 l 5
 520.619 -2 490.619 3 465.619 18 c 4
 440.619 33 422.619 56 408.619 82 c 4
 398.619 101 383.619 108 366.619 108 c 4
 349.619 108 330.619 100 314.619 74 c 4
 311.619 68 307.619 48 288.619 22 c 4
 269.619 -4 236.619 -25 183.619 -39 c 4
 149.619 -48 137.619 -74 140.619 -94 c 4
 143.619 -114 161.619 -142 239.619 -145 c 5
 609.619 -145 l 5
 609.619 -235 l 5
 237.619 -235 l 6
 236.619 -235 l 4
 131.619 -232 62.6191 -176 51.6191 -108 c 4
 40.6191 -40 86.6191 29 160.619 48 c 4
 201.619 59 211.619 68 216.619 75 c 4
 221.619 82 222.619 95 237.619 120 c 4
 267.619 170 317.619 198 366.619 198 c 4
EndSplineSet
EndChar

StartChar: uni0646
Encoding: 1606 1606 55
Width: 498
VWidth: 0
Flags: W
HStem: -160 90<177.831 358> 234 91<215.053 253 254 291.947>
VStem: 50 90<-36.9955 158> 358 90<-70 160>
LayerCount: 2
Fore
SplineSet
448 160 m 1
 448 -71 l 2
 448 -119 406 -160 358 -160 c 2
 258 -160 l 2
 210 -159 161 -146 121 -119 c 0
 81 -92 50 -46 50 10 c 0
 50 158 l 1
 140 158 l 1
 140 10 l 2
 140 -14 150 -30 172 -45 c 0
 194 -60 227 -70 259 -70 c 2
 358 -70 l 2
 358 160 l 1
 448 160 l 1
253 324 m 0
 254 325 l 0
 279 325 299 305 299 280 c 0
 299 255 279 234 254 234 c 0
 253 234 l 0
 228 234 208 255 208 280 c 0
 208 305 228 325 253 325 c 0
 253 324 l 0
EndSplineSet
Substitution2: "'fina' Terminal Forms in Arabic lookup 2-1" uniFEE6
Substitution2: "'medi' Medial Forms in Arabic lookup 1-1" uniFEE8
Substitution2: "'init' Initial Forms in Arabic lookup 0-1" uniFEE7
EndChar

StartChar: uni0637
Encoding: 1591 1591 56
Width: 586
VWidth: 0
Flags: W
HStem: 0 90<50 132.117 230 443> 233 90<337.483 429.29>
VStem: 118 90<89 565> 443 90<90 220.649>
LayerCount: 2
Fore
SplineSet
386 323 m 0
 403 323 426 321 441 313 c 0
 501 288 531 230 533 148 c 1
 533 91 l 2
 533 41 490 0 442 0 c 2
 50 0 l 1
 50 90 l 1
 118 90 l 1
 161 149 204 212 253 258 c 0
 278 282 305 301 336 313 c 0
 352 319 369 323 386 323 c 0
443 145 m 0
 441 196 433 233 388 233 c 0
 382 233 375 232 368 229 c 0
 353 223 335 211 315 192 c 0
 288 167 260 130 230 90 c 1
 443 90 l 1
 443 108 443 127 443 145 c 0
118 565 m 1
 208 565 l 1
 208 89 l 1
 118 89 l 1
 118 565 l 1
EndSplineSet
Substitution2: "'medi' Medial Forms in Arabic lookup 1-1" uniFEC4
Substitution2: "'init' Initial Forms in Arabic lookup 0-1" uniFEC3
Substitution2: "'fina' Terminal Forms in Arabic lookup 2-1" uniFEC2
EndChar

StartChar: uniFEE6
Encoding: 65254 65254 57
Width: 625
VWidth: 0
Flags: W
HStem: 0 90<178.831 535> 394 91<306.053 344 345 382.947>
VStem: 51 90<123.005 318> 535 90<90 320>
LayerCount: 2
Fore
SplineSet
625 320 m 1
 625 89 l 2
 625 41 583 0 535 0 c 2
 259 0 l 2
 211 0 162 14 122 41 c 0
 82 68 51 114 51 170 c 0
 50 318 l 1
 140 318 l 1
 141 170 l 2
 141 146 151 130 173 115 c 0
 195 100 228 90 260 90 c 2
 535 90 l 2
 535 320 l 1
 625 320 l 1
344 484 m 0
 345 485 l 0
 370 485 390 465 390 440 c 0
 390 415 370 394 345 394 c 0
 344 394 l 0
 319 394 299 415 299 440 c 0
 299 465 319 485 344 485 c 0
 344 484 l 0
EndSplineSet
EndChar

StartChar: uniFE97
Encoding: 65175 65175 58
Width: 387
VWidth: 0
Flags: W
HStem: 0 90<0 245> 390 90<97.4806 175.519 252.053 329.947>
VStem: 91 91<396.481 473.519> 245 90<90 320> 245 92<397.481 474.519>
LayerCount: 2
Fore
SplineSet
291 481 m 0xe8
 292 481 l 0
 317 481 337 461 337 436 c 0
 337 411 317 391 292 391 c 0
 291 391 l 0
 290 391 l 0
 265 391 245 411 245 436 c 0
 245 461 265 481 290 481 c 0
 291 481 l 0xe8
136 480 m 0
 137 480 l 0
 162 480 182 460 182 435 c 0
 182 410 162 390 137 390 c 0
 136 390 l 0
 111 390 91 410 91 435 c 0
 91 460 111 480 136 480 c 0
EndSplineSet
Refer: 148 -1 N 1 0 0 1 0 0 2
EndChar

StartChar: uniFEB8
Encoding: 65208 65208 59
Width: 552
VWidth: 0
Flags: W
HStem: 0 90<0 151 241 306 396 462> 391 90<239.481 317.519 394.481 472.519> 471 90<315.481 393.519>
VStem: 233 91<397.481 474.519> 236 5<41 90> 309 91<477.481 554.519> 388 91<397.481 474.519> 392 4<41 90> 462 90<90 320>
LayerCount: 2
Fore
SplineSet
433 481 m 0xc2
 434 481 l 0
 459 481 479 461 479 436 c 0
 479 411 459 391 434 391 c 0
 433 391 l 0
 408 391 388 411 388 436 c 0
 388 461 408 481 433 481 c 0xc2
279 481 m 0
 304 481 324 461 324 436 c 0
 324 411 304 391 279 391 c 0
 278 391 l 0
 253 391 233 411 233 436 c 0xd0
 233 461 253 481 278 481 c 0
 279 481 l 0
354 561 m 0xa4
 355 561 l 0
 380 561 400 541 400 516 c 0
 400 491 380 471 355 471 c 0
 354 471 l 0
 329 471 309 491 309 516 c 0
 309 541 329 561 354 561 c 0xa4
EndSplineSet
Refer: 61 65203 S 1 0 0 1 0 0 2
EndChar

StartChar: uniFEDF
Encoding: 65247 65247 60
Width: 214
VWidth: 0
Flags: W
HStem: 0 90<0 74>
VStem: 74 90<90 560>
LayerCount: 2
Fore
SplineSet
74 560 m 1
 164 560 l 1
 164 89 l 2
 164 41 122 0 74 0 c 2
 0 0 l 1
 0 90 l 1
 74 90 l 25
 74 560 l 1
EndSplineSet
EndChar

StartChar: uniFEB3
Encoding: 65203 65203 61
Width: 602
VWidth: 0
Flags: W
HStem: 0 90<0 151 241 306 396 462>
VStem: 236 5<41 90> 392 4<41 90> 462 90<90 320>
LayerCount: 2
Fore
SplineSet
462 320 m 1
 552 320 l 1
 552 89 l 2
 552 41 510 0 462 0 c 2
 392 0 l 1
 392 90 l 1
 462 90 l 25
 462 320 l 1
306 320 m 1
 396 320 l 1
 396 89 l 2
 396 41 354 0 306 0 c 2
 236 0 l 1
 236 90 l 1
 306 90 l 25
 306 320 l 1
151 320 m 1
 241 320 l 1
 241 89 l 2
 241 41 199 0 151 0 c 2
 0 0 l 1
 0 90 l 1
 151 90 l 25
 151 320 l 1
EndSplineSet
EndChar

StartChar: uniFE9B
Encoding: 65179 65179 62
Width: 387
VWidth: 0
Flags: W
HStem: 0 90<0 245> 390 90<97.4806 175.519 252.053 329.947> 470 90<172.481 251.519>
VStem: 91 91<396.481 473.519> 166 92<476.481 553.519> 245 90<90 320> 245 92<397.481 474.519>
LayerCount: 2
Fore
SplineSet
291 481 m 0x82
 292 481 l 0
 317 481 337 461 337 436 c 0
 337 411 317 391 292 391 c 0
 291 391 l 0
 290 391 l 0
 265 391 245 411 245 436 c 0
 245 461 265 481 290 481 c 0
 291 481 l 0x82
136 480 m 0xd0
 137 480 l 0
 162 480 182 460 182 435 c 0
 182 410 162 390 137 390 c 0
 136 390 l 0
 111 390 91 410 91 435 c 0
 91 460 111 480 136 480 c 0xd0
212 560 m 0xa8
 213 560 l 0
 238 560 258 540 258 515 c 0
 258 490 238 470 213 470 c 0
 212 470 l 0
 211 470 l 0
 186 470 166 490 166 515 c 0
 166 540 186 560 211 560 c 0
 212 560 l 0xa8
EndSplineSet
Refer: 148 -1 N 1 0 0 1 0 0 2
EndChar

StartChar: uniFE91
Encoding: 65169 65169 63
Width: 385
VWidth: 0
Flags: W
HStem: -248 90<162.481 201 203 241.519> 0 90<0 245>
VStem: 156 92<-241.519 -164.481> 245 90<90 320>
LayerCount: 2
Fore
SplineSet
245 320 m 1xd0
 335 320 l 1
 335 90 l 2
 335 42 293 0 245 0 c 2
 0 0 l 1
 0 90 l 1
 245 90 l 25
 245 320 l 1xd0
202 -248 m 0
 203 -248 l 0
 228 -248 248 -228 248 -203 c 0
 248 -178 228 -158 203 -158 c 0
 202 -158 l 0
 201 -158 l 0
 176 -158 156 -178 156 -203 c 0xe0
 156 -228 176 -248 201 -248 c 0
 202 -248 l 0
EndSplineSet
EndChar

StartChar: uniFEE7
Encoding: 65255 65255 64
Width: 385
VWidth: 0
Flags: W
HStem: 0 90<0 245> 470 90<172.481 251.519>
VStem: 166 92<476.481 553.519> 245 90<90 320>
LayerCount: 2
Fore
SplineSet
212 560 m 0xe0
 213 560 l 0
 238 560 258 540 258 515 c 0
 258 490 238 470 213 470 c 0
 212 470 l 0
 211 470 l 0
 186 470 166 490 166 515 c 0
 166 540 186 560 211 560 c 0
 212 560 l 0xe0
EndSplineSet
Refer: 148 -1 N 1 0 0 1 0 0 2
EndChar

StartChar: uniFEF3
Encoding: 65267 65267 65
Width: 385
VWidth: 0
Flags: W
HStem: -167 90<86.4806 165.519 242.053 318.947> 0 90<0 245>
VStem: 80 92<-160.519 -83.4806> 235 91<-159.519 -82.4806> 245 90<90 320>
LayerCount: 2
Fore
SplineSet
281 -76 m 0xf0
 306 -76 326 -96 326 -121 c 0
 326 -146 306 -166 281 -166 c 0
 280 -166 l 0
 255 -166 235 -146 235 -121 c 0
 235 -96 255 -76 280 -76 c 0
 281 -76 l 0xf0
126 -77 m 0
 127 -77 l 0
 152 -77 172 -97 172 -122 c 0
 172 -147 152 -167 127 -167 c 0
 126 -167 l 0
 125 -167 l 0
 100 -167 80 -147 80 -122 c 0
 80 -97 100 -77 125 -77 c 0
 126 -77 l 0
EndSplineSet
Refer: 148 -1 N 1 0 0 1 0 0 2
EndChar

StartChar: uni0631
Encoding: 1585 1585 68
Width: 349
VWidth: 0
Flags: W
HStem: -170 90<50 185.2>
VStem: 209 90<-55.2925 160>
LayerCount: 2
Fore
SplineSet
299 160 m 1
 299 1 l 2
 299 -39 286 -82 256 -116 c 0
 226 -150 178 -172 120 -170 c 1
 50 -170 l 1
 50 -80 l 1
 120 -80 l 1
 121 -80 l 1
 122 -80 l 2
 158 -82 176 -71 189 -56 c 0
 202 -41 209 -20 209 1 c 2
 209 160 l 1
 299 160 l 1
EndSplineSet
Substitution2: "'fina' Terminal Forms in Arabic lookup 2-1" uniFEAE
EndChar

StartChar: uni0648
Encoding: 1608 1608 69
Width: 424
VWidth: 0
Flags: W
HStem: -170 90<50 259.406> 0 90<159.153 284> 233 90<194.358 276.096>
VStem: 284 90<-55.4216 0 90 225.027>
LayerCount: 2
Fore
SplineSet
374 0 m 2
 374 -107 301 -170 195 -170 c 2
 50 -170 l 1
 50 -80 l 1
 195 -80 l 2
 253 -80 284 -53 284 0 c 1
 248 0 215 -3 180 2 c 0
 140 8 96 34 74 79 c 1
 53 125 66 171 84 209 c 0
 111 265 156 320 230 323 c 0
 301 326 374 273 374 198 c 2
 374 0 l 2
235 233 m 0
 226 233 216 230 207 224 c 0
 197 218 177 194 165 170 c 0
 154 146 153 124 156 117 c 0
 167 95 172 94 193 91 c 0
 212 88 244 90 284 90 c 1
 284 196 l 1
 283 211 262 233 235 233 c 0
EndSplineSet
Substitution2: "'fina' Terminal Forms in Arabic lookup 2-1" uniFEEE
EndChar

StartChar: uni0632
Encoding: 1586 1586 70
Width: 351
VWidth: 0
Flags: W
HStem: -170 90<50 185.2> 231 90<216.481 294.519>
VStem: 209 90<-55.2925 160> 210 91<237.481 314.519>
LayerCount: 2
Fore
SplineSet
255 321 m 0xd0
 256 321 l 0
 281 321 301 301 301 276 c 0
 301 251 281 231 256 231 c 0
 255 231 l 0
 230 231 210 251 210 276 c 0
 210 301 230 321 255 321 c 0xd0
EndSplineSet
Refer: 68 1585 N 1 0 0 1 0 0 2
Substitution2: "'fina' Terminal Forms in Arabic lookup 2-1" uniFEB0
EndChar

StartChar: uni0647
Encoding: 1607 1607 78
Width: 420
VWidth: 654
Flags: W
HStem: 0 90<139.82 280>
VStem: 280 90<90 281>
LayerCount: 2
Fore
SplineSet
212 350 m 1
 297 319 l 1
 296 316 294 312 293 309 c 1
 370 309 l 1
 370 89 l 2
 370 64 360 40 343 24 c 0
 327 9 303 0 280 0 c 2
 163 0 l 2
 97 0 65 45 55 80 c 0
 30 169 105 210 144 244 c 0
 167 263 189 288 212 350 c 1
280 281 m 1
 256 230 228 197 202 175 c 0
 170 148 151 138 144 126 c 0
 136 113 137 90 166 90 c 2
 280 90 l 2
 280 281 l 1
EndSplineSet
Substitution2: "'fina' Terminal Forms in Arabic lookup 2-1" uniFEEA
Substitution2: "'medi' Medial Forms in Arabic lookup 1-1" uniFEEC
Substitution2: "'init' Initial Forms in Arabic lookup 0-1" uniFEEB
EndChar

StartChar: uni0641
Encoding: 1601 1601 80
Width: 741
VWidth: -480
Flags: W
HStem: -170 90<150.623 601.002> -1 91<466.981 601> 226 91<474.744 584.388> 393 90<369.481 447.519>
VStem: 52 90<-73.0656 82> 363 91<399.481 476.519> 601 90<-80 0 90 208.525>
LayerCount: 2
Fore
SplineSet
409 483 m 0
 434 483 454 463 454 438 c 0
 454 413 434 393 409 393 c 0
 408 393 l 0
 383 393 363 413 363 438 c 0
 363 463 383 483 408 483 c 0
 409 483 l 0
EndSplineSet
Refer: 137 1697 N 1 0 0 1 0 0 2
Substitution2: "'fina' Terminal Forms in Arabic lookup 2-1" uniFED2
EndChar

StartChar: uni0642
Encoding: 1602 1602 81
Width: 672
VWidth: 0
Flags: W
HStem: -170 90<144.974 532> 0 90<399.842 532> 389 90<293.481 371.519 454.053 530.947>
VStem: 50 90<-75.0262 156> 287 91<395.481 472.519> 447 91<394.481 471.519> 532 90<-80 0 90 208.965>
LayerCount: 2
Fore
SplineSet
333 479 m 0xf8
 358 479 378 459 378 434 c 0
 378 409 358 389 333 389 c 0
 332 389 l 0
 307 389 287 409 287 434 c 0
 287 459 307 479 332 479 c 0
 333 479 l 0xf8
492 478 m 0
 493 478 l 0
 518 478 538 458 538 433 c 0
 538 408 518 388 493 388 c 0
 492 388 l 0
 467 388 447 408 447 433 c 0xfc
 447 458 467 478 492 478 c 0
EndSplineSet
Refer: 136 1647 N 1 0 0 1 0 0 2
Substitution2: "'fina' Terminal Forms in Arabic lookup 2-1" uniFED6
EndChar

StartChar: uni0645
Encoding: 1605 1605 82
Width: 586
VWidth: 0
Flags: W
HStem: 0 90<107.702 222 312 439.078>
VStem: 139 1<0 90> 222 90<90 235.491>
LayerCount: 2
Fore
SplineSet
50 90 m 1
 140 90 l 1
 140 0 l 1
 92 0 50 42 50 90 c 1
356 332 m 0
 436 332 488 274 516 215 c 0
 534 177 546 131 526 86 c 1
 527 86 l 1
 526 85 l 1
 505 37 458 12 418 5 c 0
 378 -2 339 1 310 0 c 1
 308 66 l 1
 297 29 262 0 222 0 c 2
 139 0 l 1
 139 90 l 1
 222 90 l 1
 223 203 l 2
 223 275 283 332 356 332 c 0
393 230 m 0
 355 254 319 244 313 199 c 1
 312 90 l 1
 312 90 379 90 402 94 c 0
 421 97 440 103 444 123 c 0
 452 168 407 222 393 230 c 0
EndSplineSet
Substitution2: "'medi' Medial Forms in Arabic lookup 1-1" uniFEE4
Substitution2: "'init' Initial Forms in Arabic lookup 0-1" uniFEE3
EndChar

StartChar: uniFEA0
Encoding: 65184 65184 87
Width: 477
VWidth: 0
Flags: W
HStem: -163 90<239.481 317.519> 0 90<0 312> 245 87<99.2299 148.6>
VStem: 233 91<-156.519 -79.4806>
LayerCount: 2
Fore
SplineSet
279 -73 m 0
 304 -73 324 -93 324 -118 c 0
 324 -143 304 -163 279 -163 c 0
 278 -163 l 0
 253 -163 233 -143 233 -118 c 0
 233 -93 253 -73 278 -73 c 0
 279 -73 l 0
EndSplineSet
Refer: 24 65187 N 1 0 0 1 0 0 2
EndChar

StartChar: uniFEA8
Encoding: 65192 65192 89
Width: 477
VWidth: 0
Flags: W
HStem: 0 90<0 312> 245 87<99.2299 148.6> 310 90<321.481 400.519>
VStem: 315 92<316.481 393.519>
LayerCount: 2
Fore
SplineSet
361 400 m 0xb0
 362 400 l 0
 387 400 407 380 407 355 c 0
 407 330 387 310 362 310 c 0
 361 310 l 0
 360 310 l 0
 335 310 315 330 315 355 c 0
 315 380 335 400 360 400 c 0
 361 400 l 0xb0
EndSplineSet
Refer: 24 65187 N 1 0 0 1 0 0 2
EndChar

StartChar: uniFEB0
Encoding: 65200 65200 90
Width: 300
VWidth: 0
Flags: W
HStem: -170 90<50 185.2> 231 90<215.481 293.519>
VStem: 209 90<-55.2925 160> 209 91<237.481 314.519>
LayerCount: 2
Fore
SplineSet
255 321 m 0xd0
 280 321 300 301 300 276 c 0
 300 251 280 231 255 231 c 0
 254 231 l 0
 229 231 209 251 209 276 c 0
 209 301 229 321 254 321 c 0
 255 321 l 0xd0
EndSplineSet
Refer: 68 1585 N 1 0 0 1 0 0 2
EndChar

StartChar: uniFEB7
Encoding: 65207 65207 92
Width: 602
VWidth: 0
Flags: W
HStem: 0 90<0 151 241 306 396 462> 391 90<239.481 317.519 394.481 472.519> 471 90<315.481 393.519>
VStem: 233 91<397.481 474.519> 236 5<41 90> 309 91<477.481 554.519> 388 91<397.481 474.519> 392 4<41 90> 462 90<90 320>
LayerCount: 2
Fore
SplineSet
433 481 m 0xc2
 434 481 l 0
 459 481 479 461 479 436 c 0
 479 411 459 391 434 391 c 0
 433 391 l 0
 408 391 388 411 388 436 c 0
 388 461 408 481 433 481 c 0xc2
279 481 m 0
 304 481 324 461 324 436 c 0
 324 411 304 391 279 391 c 0
 278 391 l 0
 253 391 233 411 233 436 c 0xd0
 233 461 253 481 278 481 c 0
 279 481 l 0
354 561 m 0xa4
 355 561 l 0
 380 561 400 541 400 516 c 0
 400 491 380 471 355 471 c 0
 354 471 l 0
 329 471 309 491 309 516 c 0
 309 541 329 561 354 561 c 0xa4
EndSplineSet
Refer: 61 65203 S 1 0 0 1 0 0 2
EndChar

StartChar: uniFEC0
Encoding: 65216 65216 94
Width: 551
VWidth: 0
Flags: W
HStem: 0 90<0 73 136 150.117 248 461> 84 6<73 136> 233 90<355.483 447.29> 310 92<157.347 234.653>
VStem: 73 90<84 236> 150 92<317.347 394.653> 461 90<90 220.649>
LayerCount: 2
Fore
SplineSet
196 402 m 0x16
 221 402 242 381 242 356 c 0
 242 331 221 310 196 310 c 0
 171 310 150 331 150 356 c 0
 150 381 171 402 196 402 c 0x16
EndSplineSet
Refer: 19 65211 N 1 0 0 1 0 0 2
EndChar

StartChar: uni064E
Encoding: 1614 1614 108
Width: 0
VWidth: -80
Flags: W
HStem: 555 270
VStem: -134 268
LayerCount: 2
Fore
SplineSet
98 825 m 1
 134 789 l 1
 -98 555 l 1
 -134 590 l 1
 98 825 l 1
EndSplineSet
EndChar

StartChar: uni0650
Encoding: 1616 1616 109
Width: 0
VWidth: -880
Flags: W
HStem: -1045 270
VStem: -134 268
LayerCount: 2
Fore
SplineSet
98 -775 m 5
 134 -811 l 5
 -98 -1045 l 5
 -134 -1010 l 5
 98 -775 l 5
EndSplineSet
EndChar

StartChar: uniFEBE
Encoding: 65214 65214 115
Width: 840
VWidth: 0
Flags: W
HStem: -169 90<142 365> 0 90<411 425 537 750> 233 90<644.483 736.29> 309 90<449.481 527.519>
VStem: 52 90<-79 160> 411 44<0 90> 443 91<315.481 392.519> 750 90<90 220.649>
LayerCount: 2
Fore
SplineSet
489 399 m 0xdb
 514 399 534 379 534 354 c 0
 534 329 514 309 489 309 c 0
 488 309 l 0
 463 309 443 329 443 354 c 0
 443 379 463 399 488 399 c 0
 489 399 l 0xdb
EndSplineSet
Refer: 12 1589 N 1 0 0 1 0 0 2
EndChar

StartChar: uniFE94
Encoding: 65172 65172 122
Width: 371
VWidth: 654
Flags: W
HStem: 0 90<139.82 280> 388 90<134.09 212.128 288.662 365.556>
VStem: 127.609 91<394.481 471.519> 280 90<90 281> 281.609 91<395.481 472.519>
LayerCount: 2
Fore
SplineSet
327.609 479 m 0xe8
 352.609 479 372.609 459 372.609 434 c 0
 372.609 409 352.609 389 327.609 389 c 0
 326.609 389 l 0
 301.609 389 281.609 409 281.609 434 c 0
 281.609 459 301.609 479 326.609 479 c 0
 327.609 479 l 0xe8
172.609 478 m 0
 173.609 478 l 0
 198.609 478 218.609 458 218.609 433 c 0
 218.609 408 198.609 388 173.609 388 c 0
 172.609 388 l 0
 147.609 388 127.609 408 127.609 433 c 0
 127.609 458 147.609 478 172.609 478 c 0
EndSplineSet
Refer: 78 1607 N 1 0 0 1 0 0 2
EndChar

StartChar: uni066F
Encoding: 1647 1647 136
Width: 672
VWidth: 0
Flags: W
HStem: -170 90<144.974 532> 0 90<399.842 532>
VStem: 50 90<-75.0262 156> 532 90<-80 0 90 208.965>
LayerCount: 2
Fore
SplineSet
140 -46 m 2
 140 -69 159 -79 181 -80 c 1
 532 -80 l 1
 532 0 l 1
 497 0 466 -1 431 2 c 0
 393 6 349 23 320 65 c 0
 320 66 319 66 319 67 c 0
 267 152 304 242 369 289 c 0
 404 314 466 324 513 309 c 0
 560 294 622 240 622 167 c 2
 622 -79 l 2
 622 -126 583 -169 531 -170 c 1
 177 -170 l 2
 106 -170 50 -114 50 -43 c 2
 50 156 l 1
 140 156 l 1
 140 -46 l 2
416 213 m 0
 376 192 371 97 439 91 c 0
 458 89 491 90 532 90 c 1
 532 163 l 0
 526 203 508 216 486 223 c 0
 464 230 428 225 416 213 c 0
EndSplineSet
EndChar

StartChar: uni06A1
Encoding: 1697 1697 137
Width: 741
VWidth: -480
Flags: W
HStem: -170 90<150.623 601.002> -1 91<466.981 601> 226 91<474.744 584.388>
VStem: 52 90<-73.0656 82> 601 90<-80 0 90 208.525>
LayerCount: 2
Fore
SplineSet
691 0 m 1
 691 -79 l 2
 691 -126 651 -169 599 -170 c 0
 181 -170 l 2
 180 -170 180 -170 179 -170 c 0
 110 -167 51 -114 52 -45 c 1
 50 82 l 1
 140 83 l 1
 142 -44 l 2
 142 -45 l 0
 142 -46 l 0
 142 -54 161 -79 183 -80 c 2
 599 -80 l 2
 604 -80 601 -78 601 -79 c 1
 601 0 l 1
 566 0 535 -4 500 -1 c 0
 462 3 418 23 389 65 c 0
 389 66 388 66 388 67 c 0
 336 152 370 249 438 289 c 0
 439 290 441 291 442 292 c 0
 466 308 495 316 525 317 c 0
 544 317 563 315 582 309 c 0
 633 293 680 245 690 174 c 0
 690 172 691 169 691 167 c 2
 691 90 l 1
 691 0 l 1
537 226 m 0
 518 227 499 222 489 215 c 0
 488 214 486 214 485 213 c 0
 464 202 438 158 464 115 c 1
 480 92 487 90 508 88 c 0
 527 86 560 90 601 90 c 1
 601 163 l 1
 595 203 577 216 555 223 c 0
 549 225 543 226 537 226 c 0
EndSplineSet
EndChar

StartChar: smallhamza
Encoding: 65536 -1 142
Width: 0
VWidth: 0
Flags: W
HStem: 0 66<-82 -27> 94 66<32 82>
VStem: -82 139<2.02771 65.5> -51 133<95.25 157.972>
LayerCount: 2
Fore
SplineSet
82 160 m 1xd0
 82 95 l 1xd0
 32 94 l 1
 54 46 l 2
 56 42 57 37 57 33 c 0
 57 15 42 0 24 0 c 2
 -82 0 l 1
 -82 66 l 1xe0
 -27 66 l 1
 -48 114 l 2
 -50 118 -51 123 -51 127 c 0
 -51 145 -36 160 -18 160 c 2
 82 160 l 1xd0
EndSplineSet
EndChar

StartChar: uni0621
Encoding: 1569 1569 143
Width: 264
VWidth: 0
Flags: W
HStem: 0 66<50 105> 94 66<164 214>
VStem: 50 139<2.02771 65.5> 81 133<95.25 157.972>
LayerCount: 2
Fore
SplineSet
214 160 m 1xd0
 214 95 l 1xd0
 164 94 l 1
 186 46 l 2
 188 42 189 37 189 33 c 0
 189 15 174 0 156 0 c 2
 50 0 l 1
 50 66 l 1xe0
 105 66 l 1
 84 114 l 2
 82 118 81 123 81 127 c 0
 81 145 96 160 114 160 c 2
 214 160 l 1xd0
EndSplineSet
EndChar

StartChar: initialdotlessbaa
Encoding: 65537 -1 148
Width: 385
VWidth: 0
Flags: W
HStem: 0 90<0 245>
VStem: 245 90<90 320>
LayerCount: 2
Fore
SplineSet
245 320 m 1
 335 320 l 1
 335 90 l 2
 335 42 293 0 245 0 c 2
 0 0 l 1
 0 90 l 1
 245 90 l 25
 245 320 l 1
EndSplineSet
EndChar
